<svg width="688" height="176" viewBox="0 0 688 176" fill="none" xmlns="http://www.w3.org/2000/svg">
<rect x="1" y="41" width="95" height="95" rx="19" fill="white" fill-opacity="0.03" stroke="white" stroke-width="2"/>
<mask id="path-2-inside-1_2134_8006" fill="white">
<rect x="295" y="40" width="97" height="97" rx="1"/>
</mask>
<rect x="295" y="40" width="97" height="97" rx="1" fill="white" fill-opacity="0.03" stroke="white" stroke-width="4" mask="url(#path-2-inside-1_2134_8006)"/>
<mask id="path-3-inside-2_2134_8006" fill="white">
<rect x="590" y="40" width="97" height="97" rx="1"/>
</mask>
<rect x="590" y="40" width="97" height="97" rx="1" fill="white" fill-opacity="0.03" stroke="white" stroke-width="4" mask="url(#path-3-inside-2_2134_8006)"/>
<rect x="299" y="44" width="2" height="2" rx="1" fill="white"/>
<rect x="302" y="44" width="2" height="2" rx="1" fill="white"/>
<rect x="305" y="44" width="2" height="2" rx="1" fill="white"/>
<rect x="297" y="48" width="93" height="2" fill="white"/>
<path d="M43.2083 92L42.8975 90.5295H41.1997L40.8796 92H39.1912L41.0837 85.3064H43.1665L45.0637 92H43.2083ZM42.0161 86.814L41.4688 89.3049H42.6331L42.1042 86.814H42.0161ZM46.0786 85.3064H48.6995C50.1931 85.3064 51.1116 86.2109 51.1116 87.6814C51.1116 89.1333 50.1467 90.0378 48.5974 90.0378H47.781V92H46.0786V85.3064ZM47.781 86.6006V88.7437H48.2681C49.0474 88.7437 49.3906 88.4143 49.3906 87.6721C49.3906 86.9299 49.0474 86.6006 48.2681 86.6006H47.781ZM52.4512 85.3064H55.072C56.5657 85.3064 57.4841 86.2109 57.4841 87.6814C57.4841 89.1333 56.5193 90.0378 54.97 90.0378H54.1536V92H52.4512V85.3064ZM54.1536 86.6006V88.7437H54.6406C55.4199 88.7437 55.7632 88.4143 55.7632 87.6721C55.7632 86.9299 55.4199 86.6006 54.6406 86.6006H54.1536Z" fill="white"/>
<path d="M627.52 61.3064H630.141C631.634 61.3064 632.553 62.2109 632.553 63.6814C632.553 65.1333 631.588 66.0378 630.039 66.0378H629.222V68H627.52V61.3064ZM629.222 62.6006V64.7437H629.709C630.489 64.7437 630.832 64.4143 630.832 63.6721C630.832 62.9299 630.489 62.6006 629.709 62.6006H629.222ZM637.395 68L637.084 66.5295H635.386L635.066 68H633.377L635.27 61.3064H637.353L639.25 68H637.395ZM636.202 62.814L635.655 65.3049H636.819L636.291 62.814H636.202ZM640.038 66.0703H641.619C641.661 66.562 642.042 66.8264 642.709 66.8264C643.303 66.8264 643.67 66.5527 643.67 66.1074C643.67 65.7317 643.442 65.5554 642.77 65.4116L641.977 65.24C640.789 64.9849 640.172 64.3215 640.172 63.3149C640.172 62.0022 641.142 61.1719 642.682 61.1719C644.18 61.1719 645.187 61.9929 645.21 63.2361H643.628C643.6 62.7676 643.248 62.4753 642.7 62.4753C642.181 62.4753 641.851 62.7258 641.851 63.1201C641.851 63.5283 642.093 63.7417 642.7 63.8669L643.466 64.0293C644.755 64.2983 645.335 64.8875 645.335 65.9172C645.335 67.3181 644.356 68.1345 642.672 68.1345C641.049 68.1345 640.065 67.3645 640.038 66.0703ZM646.41 66.0703H647.992C648.034 66.562 648.414 66.8264 649.082 66.8264C649.676 66.8264 650.042 66.5527 650.042 66.1074C650.042 65.7317 649.815 65.5554 649.142 65.4116L648.349 65.24C647.162 64.9849 646.545 64.3215 646.545 63.3149C646.545 62.0022 647.514 61.1719 649.054 61.1719C650.552 61.1719 651.559 61.9929 651.582 63.2361H650C649.973 62.7676 649.62 62.4753 649.073 62.4753C648.553 62.4753 648.224 62.7258 648.224 63.1201C648.224 63.5283 648.465 63.7417 649.073 63.8669L649.838 64.0293C651.128 64.2983 651.708 64.8875 651.708 65.9172C651.708 67.3181 650.729 68.1345 649.045 68.1345C647.421 68.1345 646.438 67.3645 646.41 66.0703ZM614.775 73.3064H617.396C618.889 73.3064 619.808 74.2109 619.808 75.6814C619.808 77.1333 618.843 78.0378 617.293 78.0378H616.477V80H614.775V73.3064ZM616.477 74.6006V76.7437H616.964C617.743 76.7437 618.087 76.4143 618.087 75.6721C618.087 74.9299 617.743 74.6006 616.964 74.6006H616.477ZM623.365 77.6575H622.859V80H621.156V73.3064H623.726C625.29 73.3064 626.227 74.1321 626.227 75.5144C626.227 76.3726 625.786 77.1008 625.085 77.407L626.403 80H624.492L623.365 77.6575ZM622.859 74.5913V76.4561H623.49C624.102 76.4561 624.487 76.0896 624.487 75.5098C624.487 74.9438 624.107 74.5913 623.485 74.5913H622.859ZM632.608 77.1472C632.608 79.0166 631.611 80.1345 629.941 80.1345C628.271 80.1345 627.274 79.0166 627.274 77.1472V76.1592C627.274 74.2898 628.271 73.1719 629.941 73.1719C631.611 73.1719 632.608 74.2898 632.608 76.1592V77.1472ZM629.941 78.7244C630.586 78.7244 630.878 78.2234 630.878 77.1287V76.1777C630.878 75.083 630.586 74.582 629.941 74.582C629.296 74.582 629.004 75.083 629.004 76.1777V77.1287C629.004 78.2234 629.296 78.7244 629.941 78.7244ZM636.425 78.4924L637.562 73.3064H639.25L637.357 80H635.275L633.377 73.3064H635.233L636.337 78.4924H636.425ZM644.945 80H640.427V78.6316H641.837V74.6748H640.427V73.3064H644.945V74.6748H643.535V78.6316H644.945V80ZM646.545 73.3064H648.901C650.761 73.3064 651.754 74.4475 651.754 76.5859C651.754 78.8357 650.78 80 648.901 80H646.545V73.3064ZM648.247 74.6748V78.6316H648.641C649.602 78.6316 650.019 78.0193 650.019 76.6184C650.019 75.3057 649.574 74.6748 648.641 74.6748H648.247ZM657.728 78.6316V80H653.302V73.3064H657.728V74.6748H655.005V76.0107H657.556V77.2632H655.005V78.6316H657.728ZM661.6 77.6575H661.094V80H659.392V73.3064H661.962C663.525 73.3064 664.462 74.1321 664.462 75.5144C664.462 76.3726 664.021 77.1008 663.321 77.407L664.638 80H662.727L661.6 77.6575ZM661.094 74.5913V76.4561H661.725C662.337 76.4561 662.722 76.0896 662.722 75.5098C662.722 74.9438 662.342 74.5913 661.72 74.5913H661.094ZM614.775 85.3064H617.396C618.889 85.3064 619.808 86.2109 619.808 87.6814C619.808 89.1333 618.843 90.0378 617.293 90.0378H616.477V92H614.775V85.3064ZM616.477 86.6006V88.7437H616.964C617.743 88.7437 618.087 88.4143 618.087 87.6721C618.087 86.9299 617.743 86.6006 616.964 86.6006H616.477ZM623.365 89.6575H622.859V92H621.156V85.3064H623.726C625.29 85.3064 626.227 86.1321 626.227 87.5144C626.227 88.3726 625.786 89.1008 625.085 89.407L626.403 92H624.492L623.365 89.6575ZM622.859 86.5913V88.4561H623.49C624.102 88.4561 624.487 88.0896 624.487 87.5098C624.487 86.9438 624.107 86.5913 623.485 86.5913H622.859ZM632.237 90.6316V92H627.812V85.3064H632.237V86.6748H629.514V88.0107H632.066V89.2632H629.514V90.6316H632.237ZM633.665 90.0703H635.247C635.289 90.562 635.669 90.8264 636.337 90.8264C636.931 90.8264 637.297 90.5527 637.297 90.1074C637.297 89.7317 637.07 89.5554 636.397 89.4116L635.604 89.24C634.417 88.9849 633.8 88.3215 633.8 87.3149C633.8 86.0022 634.769 85.1719 636.309 85.1719C637.807 85.1719 638.814 85.9929 638.837 87.2361H637.255C637.228 86.7676 636.875 86.4753 636.328 86.4753C635.808 86.4753 635.479 86.7258 635.479 87.1201C635.479 87.5283 635.72 87.7417 636.328 87.8669L637.093 88.0293C638.383 88.2983 638.962 88.8875 638.962 89.9172C638.962 91.3181 637.984 92.1345 636.3 92.1345C634.676 92.1345 633.693 91.3645 633.665 90.0703ZM644.982 90.6316V92H640.557V85.3064H644.982V86.6748H642.26V88.0107H644.811V89.2632H642.26V90.6316H644.982ZM648.066 92H646.624V85.3064H648.089L649.963 89.3049H650.052V85.3064H651.494V92H650.028L648.154 87.9644H648.066V92ZM656.28 92H654.583V86.6748H652.746V85.3064H658.117V86.6748H656.28V92ZM659.155 90.0703H660.737C660.779 90.562 661.159 90.8264 661.827 90.8264C662.421 90.8264 662.787 90.5527 662.787 90.1074C662.787 89.7317 662.56 89.5554 661.887 89.4116L661.094 89.24C659.907 88.9849 659.29 88.3215 659.29 87.3149C659.29 86.0022 660.259 85.1719 661.799 85.1719C663.298 85.1719 664.304 85.9929 664.327 87.2361H662.746C662.718 86.7676 662.365 86.4753 661.818 86.4753C661.298 86.4753 660.969 86.7258 660.969 87.1201C660.969 87.5283 661.21 87.7417 661.818 87.8669L662.583 88.0293C663.873 88.2983 664.453 88.8875 664.453 89.9172C664.453 91.3181 663.474 92.1345 661.79 92.1345C660.167 92.1345 659.183 91.3645 659.155 90.0703ZM620.178 101.657H619.673V104H617.97V97.3064H620.54C622.103 97.3064 623.04 98.1321 623.04 99.5144C623.04 100.373 622.6 101.101 621.899 101.407L623.217 104H621.305L620.178 101.657ZM619.673 98.5913V100.456H620.303C620.916 100.456 621.301 100.09 621.301 99.5098C621.301 98.9438 620.92 98.5913 620.299 98.5913H619.673ZM629.051 102.632V104H624.626V97.3064H629.051V98.6748H626.328V100.011H628.879V101.263H626.328V102.632H629.051ZM634.167 104.71L633.809 104.065C633.596 104.111 633.369 104.135 633.127 104.135C631.458 104.135 630.46 103.017 630.46 101.147V100.159C630.46 98.2898 631.458 97.1719 633.127 97.1719C634.797 97.1719 635.795 98.2898 635.795 100.159V101.147C635.795 102.14 635.512 102.919 635.001 103.434L635.707 104.71H634.167ZM632.139 101.156C632.139 102.302 632.45 102.831 633.127 102.831L632.589 101.862H634.064C634.097 101.657 634.115 101.426 634.115 101.156V100.257C634.115 99.1108 633.805 98.582 633.127 98.582C632.45 98.582 632.139 99.1108 632.139 100.257V101.156ZM639.5 102.701C640.08 102.701 640.386 102.288 640.386 101.509V97.3064H642.088V101.602C642.088 103.202 641.137 104.135 639.5 104.135C637.863 104.135 636.912 103.202 636.912 101.602V97.3064H638.614V101.509C638.614 102.288 638.92 102.701 639.5 102.701ZM648.169 102.632V104H643.743V97.3064H648.169V98.6748H645.446V100.011H647.997V101.263H645.446V102.632H648.169ZM649.596 102.07H651.178C651.22 102.562 651.6 102.826 652.268 102.826C652.862 102.826 653.229 102.553 653.229 102.107C653.229 101.732 653.001 101.555 652.329 101.412L651.535 101.24C650.348 100.985 649.731 100.322 649.731 99.3149C649.731 98.0022 650.7 97.1719 652.24 97.1719C653.739 97.1719 654.745 97.9929 654.769 99.2361H653.187C653.159 98.7676 652.806 98.4753 652.259 98.4753C651.74 98.4753 651.41 98.7258 651.41 99.1201C651.41 99.5283 651.651 99.7417 652.259 99.8669L653.024 100.029C654.314 100.298 654.894 100.887 654.894 101.917C654.894 103.318 653.915 104.135 652.231 104.135C650.608 104.135 649.624 103.365 649.596 102.07ZM659.467 104H657.769V98.6748H655.932V97.3064H661.303V98.6748H659.467V104ZM636.314 114.701C636.894 114.701 637.2 114.288 637.2 113.509V109.306H638.902V113.602C638.902 115.202 637.951 116.135 636.314 116.135C634.676 116.135 633.725 115.202 633.725 113.602V109.306H635.428V113.509C635.428 114.288 635.734 114.701 636.314 114.701ZM644.945 116H640.427V114.632H641.837V110.675H640.427V109.306H644.945V110.675H643.535V114.632H644.945V116Z" fill="white"/>
<path d="M324.74 92H321.956V85.3064H324.647C325.973 85.3064 326.771 85.9326 326.771 86.9763C326.771 87.6907 326.238 88.303 325.523 88.4004V88.4885C326.405 88.5349 327.077 89.2214 327.077 90.0703C327.077 91.2485 326.168 92 324.74 92ZM323.612 86.5078V87.9829H324.155C324.716 87.9829 325.064 87.7092 325.064 87.2686C325.064 86.7676 324.753 86.5078 324.155 86.5078H323.612ZM323.612 90.7754H324.155C324.962 90.7754 325.301 90.5249 325.301 89.9219C325.301 89.3792 324.925 89.1147 324.155 89.1147H323.612V90.7754ZM330.551 89.6575H330.045V92H328.343V85.3064H330.913C332.476 85.3064 333.413 86.1321 333.413 87.5144C333.413 88.3726 332.972 89.1008 332.272 89.407L333.589 92H331.678L330.551 89.6575ZM330.045 86.5913V88.4561H330.676C331.288 88.4561 331.673 88.0896 331.673 87.5098C331.673 86.9438 331.293 86.5913 330.671 86.5913H330.045ZM339.795 89.1472C339.795 91.0166 338.797 92.1345 337.127 92.1345C335.458 92.1345 334.46 91.0166 334.46 89.1472V88.1592C334.46 86.2898 335.458 85.1719 337.127 85.1719C338.797 85.1719 339.795 86.2898 339.795 88.1592V89.1472ZM337.127 90.7244C337.772 90.7244 338.064 90.2234 338.064 89.1287V88.1777C338.064 87.083 337.772 86.582 337.127 86.582C336.483 86.582 336.19 87.083 336.19 88.1777V89.1287C336.19 90.2234 336.483 90.7244 337.127 90.7244ZM343.542 88.1777H343.458L342.971 92H341.519L340.564 85.3064H342.085L342.252 87.3938L342.405 89.9543H342.498L342.878 86.8372H344.122L344.502 89.9543H344.595L344.748 87.3938L344.915 85.3064H346.436L345.481 92H344.029L343.542 88.1777ZM347.224 90.0703H348.806C348.847 90.562 349.228 90.8264 349.896 90.8264C350.49 90.8264 350.856 90.5527 350.856 90.1074C350.856 89.7317 350.629 89.5554 349.956 89.4116L349.163 89.24C347.975 88.9849 347.358 88.3215 347.358 87.3149C347.358 86.0022 348.328 85.1719 349.868 85.1719C351.366 85.1719 352.373 85.9929 352.396 87.2361H350.814C350.786 86.7676 350.434 86.4753 349.886 86.4753C349.367 86.4753 349.038 86.7258 349.038 87.1201C349.038 87.5283 349.279 87.7417 349.886 87.8669L350.652 88.0293C351.941 88.2983 352.521 88.8875 352.521 89.9172C352.521 91.3181 351.542 92.1345 349.859 92.1345C348.235 92.1345 347.252 91.3645 347.224 90.0703ZM358.541 90.6316V92H354.116V85.3064H358.541V86.6748H355.818V88.0107H358.37V89.2632H355.818V90.6316H358.541ZM362.414 89.6575H361.908V92H360.206V85.3064H362.775C364.339 85.3064 365.276 86.1321 365.276 87.5144C365.276 88.3726 364.835 89.1008 364.135 89.407L365.452 92H363.541L362.414 89.6575ZM361.908 86.5913V88.4561H362.539C363.151 88.4561 363.536 88.0896 363.536 87.5098C363.536 86.9438 363.156 86.5913 362.534 86.5913H361.908Z" fill="white"/>
<path d="M177.178 61.6575H176.673V64H174.97V57.3064H177.54C179.103 57.3064 180.04 58.1321 180.04 59.5144C180.04 60.3726 179.6 61.1008 178.899 61.407L180.217 64H178.305L177.178 61.6575ZM176.673 58.5913V60.4561H177.303C177.916 60.4561 178.301 60.0896 178.301 59.5098C178.301 58.9438 177.92 58.5913 177.299 58.5913H176.673ZM186.051 62.6316V64H181.626V57.3064H186.051V58.6748H183.328V60.0107H185.879V61.2632H183.328V62.6316H186.051ZM191.167 64.7097L190.809 64.0649C190.596 64.1113 190.369 64.1345 190.127 64.1345C188.458 64.1345 187.46 63.0166 187.46 61.1472V60.1592C187.46 58.2898 188.458 57.1719 190.127 57.1719C191.797 57.1719 192.795 58.2898 192.795 60.1592V61.1472C192.795 62.1399 192.512 62.9192 192.001 63.4341L192.707 64.7097H191.167ZM189.139 61.1565C189.139 62.3022 189.45 62.8311 190.127 62.8311L189.589 61.8616H191.064C191.097 61.6575 191.115 61.4255 191.115 61.1565V60.2566C191.115 59.1108 190.805 58.582 190.127 58.582C189.45 58.582 189.139 59.1108 189.139 60.2566V61.1565ZM196.5 62.7012C197.08 62.7012 197.386 62.2883 197.386 61.509V57.3064H199.088V61.6018C199.088 63.2021 198.137 64.1345 196.5 64.1345C194.863 64.1345 193.912 63.2021 193.912 61.6018V57.3064H195.614V61.509C195.614 62.2883 195.92 62.7012 196.5 62.7012ZM205.169 62.6316V64H200.743V57.3064H205.169V58.6748H202.446V60.0107H204.997V61.2632H202.446V62.6316H205.169ZM206.596 62.0703H208.178C208.22 62.562 208.6 62.8264 209.268 62.8264C209.862 62.8264 210.229 62.5527 210.229 62.1074C210.229 61.7317 210.001 61.5554 209.329 61.4116L208.535 61.24C207.348 60.9849 206.731 60.3215 206.731 59.3149C206.731 58.0022 207.7 57.1719 209.24 57.1719C210.739 57.1719 211.745 57.9929 211.769 59.2361H210.187C210.159 58.7676 209.806 58.4753 209.259 58.4753C208.74 58.4753 208.41 58.7258 208.41 59.1201C208.41 59.5283 208.651 59.7417 209.259 59.8669L210.024 60.0293C211.314 60.2983 211.894 60.8875 211.894 61.9172C211.894 63.3181 210.915 64.1345 209.231 64.1345C207.608 64.1345 206.624 63.3645 206.596 62.0703ZM216.467 64H214.769V58.6748H212.932V57.3064H218.303V58.6748H216.467V64Z" fill="white"/>
<rect x="395" y="60" width="2" height="2" rx="1" fill="white"/>
<rect x="450" y="60" width="2" height="2" rx="1" fill="white"/>
<rect x="155" y="115" width="2" height="2" rx="1" fill="white"/>
<rect x="395" y="115" width="2" height="2" rx="1" fill="white"/>
<rect x="150" y="115" width="2" height="2" rx="1" fill="white"/>
<rect x="245" y="60" width="2" height="2" rx="1" fill="white"/>
<rect x="545" y="60" width="2" height="2" rx="1" fill="white"/>
<rect x="245" y="115" width="2" height="2" rx="1" fill="white"/>
<rect x="545" y="115" width="2" height="2" rx="1" fill="white"/>
<rect x="240" y="60" width="2" height="2" rx="1" fill="white"/>
<rect x="540" y="60" width="2" height="2" rx="1" fill="white"/>
<rect x="240" y="115" width="2" height="2" rx="1" fill="white"/>
<rect x="540" y="115" width="2" height="2" rx="1" fill="white"/>
<rect x="150" y="60" width="2" height="2" rx="1" fill="white"/>
<rect x="240" y="55" width="2" height="2" rx="1" fill="white"/>
<rect x="150" y="55" width="2" height="2" rx="1" fill="white"/>
<rect x="240" y="50" width="2" height="2" rx="1" fill="white"/>
<rect x="150" y="50" width="2" height="2" rx="1" fill="white"/>
<rect x="150" y="70" width="2" height="2" rx="1" fill="white"/>
<rect x="240" y="70" width="2" height="2" rx="1" fill="white"/>
<rect x="240" y="45" width="2" height="2" rx="1" fill="white"/>
<rect x="150" y="45" width="2" height="2" rx="1" fill="white"/>
<rect x="230" y="40" width="2" height="2" rx="1" fill="white"/>
<rect x="240" y="40" width="2" height="2" rx="1" fill="white"/>
<rect x="235" y="40" width="2" height="2" rx="1" fill="white"/>
<rect x="150" y="65" width="2" height="2" rx="1" fill="white"/>
<rect x="225" y="40" width="2" height="2" rx="1" fill="white"/>
<rect x="240" y="65" width="2" height="2" rx="1" fill="white"/>
<rect x="220" y="40" width="2" height="2" rx="1" fill="white"/>
<rect x="215" y="40" width="2" height="2" rx="1" fill="white"/>
<rect x="230" y="80" width="2" height="2" rx="1" fill="white"/>
<rect x="240" y="80" width="2" height="2" rx="1" fill="white"/>
<rect x="235" y="80" width="2" height="2" rx="1" fill="white"/>
<rect x="240" y="75" width="2" height="2" rx="1" fill="white"/>
<rect x="210" y="40" width="2" height="2" rx="1" fill="white"/>
<rect x="205" y="40" width="2" height="2" rx="1" fill="white"/>
<rect x="225" y="80" width="2" height="2" rx="1" fill="white"/>
<rect x="200" y="40" width="2" height="2" rx="1" fill="white"/>
<rect x="195" y="40" width="2" height="2" rx="1" fill="white"/>
<rect x="220" y="80" width="2" height="2" rx="1" fill="white"/>
<rect x="190" y="40" width="2" height="2" rx="1" fill="white"/>
<rect x="185" y="40" width="2" height="2" rx="1" fill="white"/>
<rect x="215" y="80" width="2" height="2" rx="1" fill="white"/>
<rect x="180" y="40" width="2" height="2" rx="1" fill="white"/>
<rect x="175" y="40" width="2" height="2" rx="1" fill="white"/>
<rect x="210" y="80" width="2" height="2" rx="1" fill="white"/>
<rect x="170" y="40" width="2" height="2" rx="1" fill="white"/>
<rect x="165" y="40" width="2" height="2" rx="1" fill="white"/>
<rect x="205" y="80" width="2" height="2" rx="1" fill="white"/>
<rect x="160" y="40" width="2" height="2" rx="1" fill="white"/>
<rect x="155" y="40" width="2" height="2" rx="1" fill="white"/>
<rect x="150" y="40" width="2" height="2" rx="1" fill="white"/>
<rect x="200" y="80" width="2" height="2" rx="1" fill="white"/>
<rect x="195" y="80" width="2" height="2" rx="1" fill="white"/>
<rect x="190" y="80" width="2" height="2" rx="1" fill="white"/>
<rect x="185" y="80" width="2" height="2" rx="1" fill="white"/>
<rect x="180" y="80" width="2" height="2" rx="1" fill="white"/>
<rect x="175" y="80" width="2" height="2" rx="1" fill="white"/>
<rect x="170" y="80" width="2" height="2" rx="1" fill="white"/>
<rect x="165" y="80" width="2" height="2" rx="1" fill="white"/>
<rect x="160" y="80" width="2" height="2" rx="1" fill="white"/>
<rect x="155" y="80" width="2" height="2" rx="1" fill="white"/>
<rect x="150" y="80" width="2" height="2" rx="1" fill="white"/>
<rect x="150" y="75" width="2" height="2" rx="1" fill="white"/>
<path d="M474.865 116.657H474.359V119H472.656V112.306H475.226C476.79 112.306 477.727 113.132 477.727 114.514C477.727 115.373 477.286 116.101 476.585 116.407L477.903 119H475.992L474.865 116.657ZM474.359 113.591V115.456H474.99C475.602 115.456 475.987 115.09 475.987 114.51C475.987 113.944 475.607 113.591 474.985 113.591H474.359ZM483.737 117.632V119H479.312V112.306H483.737V113.675H481.014V115.011H483.566V116.263H481.014V117.632H483.737ZM485.165 117.07H486.747C486.789 117.562 487.169 117.826 487.837 117.826C488.431 117.826 488.797 117.553 488.797 117.107C488.797 116.732 488.57 116.555 487.897 116.412L487.104 116.24C485.917 115.985 485.3 115.322 485.3 114.315C485.3 113.002 486.269 112.172 487.809 112.172C489.307 112.172 490.314 112.993 490.337 114.236H488.755C488.728 113.768 488.375 113.475 487.828 113.475C487.308 113.475 486.979 113.726 486.979 114.12C486.979 114.528 487.22 114.742 487.828 114.867L488.593 115.029C489.883 115.298 490.462 115.887 490.462 116.917C490.462 118.318 489.484 119.135 487.8 119.135C486.176 119.135 485.193 118.365 485.165 117.07ZM494.186 117.701C494.766 117.701 495.072 117.288 495.072 116.509V112.306H496.775V116.602C496.775 118.202 495.824 119.135 494.186 119.135C492.549 119.135 491.598 118.202 491.598 116.602V112.306H493.3V116.509C493.3 117.288 493.606 117.701 494.186 117.701ZM503.008 117.594V119H498.583V112.306H500.257V117.594H503.008ZM507.78 119H506.083V113.675H504.246V112.306H509.617V113.675H507.78V119Z" fill="white"/>
<rect x="535" y="115" width="2" height="2" rx="1" fill="white"/>
<rect x="445" y="115" width="2" height="2" rx="1" fill="white"/>
<rect x="535" y="110" width="2" height="2" rx="1" fill="white"/>
<rect x="445" y="110" width="2" height="2" rx="1" fill="white"/>
<rect x="535" y="105" width="2" height="2" rx="1" fill="white"/>
<rect x="445" y="105" width="2" height="2" rx="1" fill="white"/>
<rect x="445" y="125" width="2" height="2" rx="1" fill="white"/>
<rect x="535" y="125" width="2" height="2" rx="1" fill="white"/>
<rect x="535" y="100" width="2" height="2" rx="1" fill="white"/>
<rect x="445" y="100" width="2" height="2" rx="1" fill="white"/>
<rect x="525" y="95" width="2" height="2" rx="1" fill="white"/>
<rect x="535" y="95" width="2" height="2" rx="1" fill="white"/>
<rect x="530" y="95" width="2" height="2" rx="1" fill="white"/>
<rect x="445" y="120" width="2" height="2" rx="1" fill="white"/>
<rect x="520" y="95" width="2" height="2" rx="1" fill="white"/>
<rect x="535" y="120" width="2" height="2" rx="1" fill="white"/>
<rect x="515" y="95" width="2" height="2" rx="1" fill="white"/>
<rect x="510" y="95" width="2" height="2" rx="1" fill="white"/>
<rect x="525" y="135" width="2" height="2" rx="1" fill="white"/>
<rect x="535" y="135" width="2" height="2" rx="1" fill="white"/>
<rect x="530" y="135" width="2" height="2" rx="1" fill="white"/>
<rect x="535" y="130" width="2" height="2" rx="1" fill="white"/>
<rect x="505" y="95" width="2" height="2" rx="1" fill="white"/>
<rect x="500" y="95" width="2" height="2" rx="1" fill="white"/>
<rect x="520" y="135" width="2" height="2" rx="1" fill="white"/>
<rect x="495" y="95" width="2" height="2" rx="1" fill="white"/>
<rect x="490" y="95" width="2" height="2" rx="1" fill="white"/>
<rect x="515" y="135" width="2" height="2" rx="1" fill="white"/>
<rect x="485" y="95" width="2" height="2" rx="1" fill="white"/>
<rect x="480" y="95" width="2" height="2" rx="1" fill="white"/>
<rect x="510" y="135" width="2" height="2" rx="1" fill="white"/>
<rect x="475" y="95" width="2" height="2" rx="1" fill="white"/>
<rect x="470" y="95" width="2" height="2" rx="1" fill="white"/>
<rect x="505" y="135" width="2" height="2" rx="1" fill="white"/>
<rect x="465" y="95" width="2" height="2" rx="1" fill="white"/>
<rect x="460" y="95" width="2" height="2" rx="1" fill="white"/>
<rect x="500" y="135" width="2" height="2" rx="1" fill="white"/>
<rect x="455" y="95" width="2" height="2" rx="1" fill="white"/>
<rect x="450" y="95" width="2" height="2" rx="1" fill="white"/>
<rect x="445" y="95" width="2" height="2" rx="1" fill="white"/>
<rect x="495" y="135" width="2" height="2" rx="1" fill="white"/>
<rect x="490" y="135" width="2" height="2" rx="1" fill="white"/>
<rect x="485" y="135" width="2" height="2" rx="1" fill="white"/>
<rect x="480" y="135" width="2" height="2" rx="1" fill="white"/>
<rect x="475" y="135" width="2" height="2" rx="1" fill="white"/>
<rect x="470" y="135" width="2" height="2" rx="1" fill="white"/>
<rect x="465" y="135" width="2" height="2" rx="1" fill="white"/>
<rect x="460" y="135" width="2" height="2" rx="1" fill="white"/>
<rect x="455" y="135" width="2" height="2" rx="1" fill="white"/>
<rect x="450" y="135" width="2" height="2" rx="1" fill="white"/>
<rect x="445" y="135" width="2" height="2" rx="1" fill="white"/>
<rect x="445" y="130" width="2" height="2" rx="1" fill="white"/>
<rect x="115" y="60" width="2" height="2" rx="1" fill="white"/>
<rect x="415" y="60" width="2" height="2" rx="1" fill="white"/>
<rect x="470" y="60" width="2" height="2" rx="1" fill="white"/>
<rect x="115" y="115" width="2" height="2" rx="1" fill="white"/>
<rect x="175" y="115" width="2" height="2" rx="1" fill="white"/>
<rect x="415" y="115" width="2" height="2" rx="1" fill="white"/>
<rect x="265" y="60" width="2" height="2" rx="1" fill="white"/>
<rect x="565" y="60" width="2" height="2" rx="1" fill="white"/>
<rect x="265" y="115" width="2" height="2" rx="1" fill="white"/>
<rect x="565" y="115" width="2" height="2" rx="1" fill="white"/>
<rect x="255" y="60" width="2" height="2" rx="1" fill="white"/>
<rect x="555" y="60" width="2" height="2" rx="1" fill="white"/>
<rect x="255" y="115" width="2" height="2" rx="1" fill="white"/>
<rect x="555" y="115" width="2" height="2" rx="1" fill="white"/>
<rect x="105" y="60" width="2" height="2" rx="1" fill="white"/>
<rect x="405" y="60" width="2" height="2" rx="1" fill="white"/>
<rect x="460" y="60" width="2" height="2" rx="1" fill="white"/>
<rect x="105" y="115" width="2" height="2" rx="1" fill="white"/>
<rect x="165" y="115" width="2" height="2" rx="1" fill="white"/>
<rect x="405" y="115" width="2" height="2" rx="1" fill="white"/>
<rect x="275" y="60" width="2" height="2" rx="1" fill="white"/>
<rect x="575" y="60" width="2" height="2" rx="1" fill="white"/>
<rect x="275" y="115" width="2" height="2" rx="1" fill="white"/>
<rect x="575" y="115" width="2" height="2" rx="1" fill="white"/>
<rect x="125" y="60" width="2" height="2" rx="1" fill="white"/>
<rect x="425" y="60" width="2" height="2" rx="1" fill="white"/>
<rect x="480" y="60" width="2" height="2" rx="1" fill="white"/>
<rect x="510" y="60" width="2" height="2" rx="1" fill="white"/>
<rect x="125" y="115" width="2" height="2" rx="1" fill="white"/>
<rect x="185" y="115" width="2" height="2" rx="1" fill="white"/>
<rect x="210" y="115" width="2" height="2" rx="1" fill="white"/>
<rect x="425" y="115" width="2" height="2" rx="1" fill="white"/>
<rect x="250" y="60" width="2" height="2" rx="1" fill="white"/>
<rect x="550" y="60" width="2" height="2" rx="1" fill="white"/>
<rect x="250" y="115" width="2" height="2" rx="1" fill="white"/>
<rect x="550" y="115" width="2" height="2" rx="1" fill="white"/>
<rect x="100" y="60" width="2" height="2" rx="1" fill="white"/>
<rect x="400" y="60" width="2" height="2" rx="1" fill="white"/>
<rect x="455" y="60" width="2" height="2" rx="1" fill="white"/>
<rect x="100" y="115" width="2" height="2" rx="1" fill="white"/>
<rect x="160" y="115" width="2" height="2" rx="1" fill="white"/>
<rect x="400" y="115" width="2" height="2" rx="1" fill="white"/>
<rect x="270" y="60" width="2" height="2" rx="1" fill="white"/>
<rect x="570" y="60" width="2" height="2" rx="1" fill="white"/>
<rect x="270" y="115" width="2" height="2" rx="1" fill="white"/>
<rect x="570" y="115" width="2" height="2" rx="1" fill="white"/>
<rect x="120" y="60" width="2" height="2" rx="1" fill="white"/>
<path d="M138.285 61.4283L134.757 63.5452C134.424 63.7451 134 63.5051 134 63.1164V58.8826C134 58.494 134.424 58.2539 134.757 58.4539L138.285 60.5708C138.609 60.765 138.609 61.2341 138.285 61.4283Z" fill="white"/>
<rect x="420" y="60" width="2" height="2" rx="1" fill="white"/>
<rect x="475" y="60" width="2" height="2" rx="1" fill="white"/>
<rect x="505" y="60" width="2" height="2" rx="1" fill="white"/>
<rect x="120" y="115" width="2" height="2" rx="1" fill="white"/>
<rect x="180" y="115" width="2" height="2" rx="1" fill="white"/>
<rect x="420" y="115" width="2" height="2" rx="1" fill="white"/>
<rect x="260" y="60" width="2" height="2" rx="1" fill="white"/>
<rect x="560" y="60" width="2" height="2" rx="1" fill="white"/>
<rect x="260" y="115" width="2" height="2" rx="1" fill="white"/>
<rect x="560" y="115" width="2" height="2" rx="1" fill="white"/>
<rect x="110" y="60" width="2" height="2" rx="1" fill="white"/>
<rect x="410" y="60" width="2" height="2" rx="1" fill="white"/>
<rect x="465" y="60" width="2" height="2" rx="1" fill="white"/>
<rect x="110" y="115" width="2" height="2" rx="1" fill="white"/>
<rect x="170" y="115" width="2" height="2" rx="1" fill="white"/>
<rect x="410" y="115" width="2" height="2" rx="1" fill="white"/>
<rect x="280" y="60" width="2" height="2" rx="1" fill="white"/>
<rect x="580" y="60" width="2" height="2" rx="1" fill="white"/>
<rect x="280" y="115" width="2" height="2" rx="1" fill="white"/>
<rect x="580" y="115" width="2" height="2" rx="1" fill="white"/>
<rect x="130" y="60" width="2" height="2" rx="1" fill="white"/>
<rect x="430" y="60" width="2" height="2" rx="1" fill="white"/>
<rect x="485" y="60" width="2" height="2" rx="1" fill="white"/>
<rect x="515" y="60" width="2" height="2" rx="1" fill="white"/>
<rect x="130" y="115" width="2" height="2" rx="1" fill="white"/>
<rect x="190" y="115" width="2" height="2" rx="1" fill="white"/>
<rect x="215" y="115" width="2" height="2" rx="1" fill="white"/>
<rect x="430" y="115" width="2" height="2" rx="1" fill="white"/>
<rect x="285" y="60" width="2" height="2" rx="1" fill="white"/>
<rect x="585" y="60" width="2" height="2" rx="1" fill="white"/>
<rect x="285" y="115" width="2" height="2" rx="1" fill="white"/>
<rect x="585" y="115" width="2" height="2" rx="1" fill="white"/>
<rect x="135" y="60" width="2" height="2" rx="1" fill="white"/>
<rect x="435" y="60" width="2" height="2" rx="1" fill="white"/>
<rect x="490" y="60" width="2" height="2" rx="1" fill="white"/>
<rect x="520" y="60" width="2" height="2" rx="1" fill="white"/>
<rect x="135" y="115" width="2" height="2" rx="1" fill="white"/>
<rect x="195" y="115" width="2" height="2" rx="1" fill="white"/>
<rect x="220" y="115" width="2" height="2" rx="1" fill="white"/>
<rect x="435" y="115" width="2" height="2" rx="1" fill="white"/>
<rect x="290" y="60" width="2" height="2" rx="1" fill="white"/>
<rect x="290" y="115" width="2" height="2" rx="1" fill="white"/>
<rect x="140" y="60" width="2" height="2" rx="1" fill="white"/>
<rect x="145" y="60" width="2" height="2" rx="1" fill="white"/>
<rect x="440" y="60" width="2" height="2" rx="1" fill="white"/>
<rect x="495" y="60" width="2" height="2" rx="1" fill="white"/>
<rect x="525" y="60" width="2" height="2" rx="1" fill="white"/>
<rect x="140" y="115" width="2" height="2" rx="1" fill="white"/>
<rect x="200" y="115" width="2" height="2" rx="1" fill="white"/>
<rect x="225" y="115" width="2" height="2" rx="1" fill="white"/>
<rect x="440" y="115" width="2" height="2" rx="1" fill="white"/>
<rect x="445" y="60" width="2" height="2" rx="1" fill="white"/>
<rect x="500" y="60" width="2" height="2" rx="1" fill="white"/>
<rect x="530" y="60" width="2" height="2" rx="1" fill="white"/>
<rect x="535" y="60" width="2" height="2" rx="1" fill="white"/>
<rect x="145" y="115" width="2" height="2" rx="1" fill="white"/>
<rect x="205" y="115" width="2" height="2" rx="1" fill="white"/>
<rect x="230" y="115" width="2" height="2" rx="1" fill="white"/>
<rect x="235" y="115" width="2" height="2" rx="1" fill="white"/>
</svg>
