<svg width="42" height="30" viewBox="0 0 42 30" fill="none" xmlns="http://www.w3.org/2000/svg">
  <path fill-rule="evenodd" clip-rule="evenodd" d="M4 0C1.79086 0 0 1.79086 0 4V26C0 28.2091 1.79086 30 4 30H38C40.2091 30 42 28.2091 42 26V4C42 1.79086 40.2091 0 38 0H4ZM16 8.5C16 7.67157 16.6716 7 17.5 7C18.3284 7 19 7.67157 19 8.5V13.5C19 14.3284 18.3284 15 17.5 15C16.6716 15 16 14.3284 16 13.5V8.5ZM23 8.5C23 7.67157 23.6716 7 24.5 7C25.3284 7 26 7.67157 26 8.5V13.5C26 14.3284 25.3284 15 24.5 15C23.6716 15 23 14.3284 23 13.5V8.5ZM13.7761 18.133C14.2549 17.457 15.1911 17.2971 15.8671 17.7759C17.4531 18.8993 19.1925 19.5 21.0001 19.5C22.8077 19.5 24.5471 18.8993 26.1331 17.7759C26.8092 17.2971 27.7454 17.457 28.2242 18.133C28.703 18.8091 28.5431 19.7452 27.8671 20.2241C25.8382 21.6611 23.503 22.5 21.0001 22.5C18.4972 22.5 16.162 21.6611 14.1331 20.2241C13.4571 19.7452 13.2972 18.8091 13.7761 18.133Z" fill="white"/>
</svg>
