<svg width="32" height="32" viewBox="0 0 32 32" fill="none" xmlns="http://www.w3.org/2000/svg">
<path fill-rule="evenodd" clip-rule="evenodd" d="M4.66667 6C3.19391 6 2 7.19391 2 8.66667V23.3333C2 24.8061 3.19391 26 4.66667 26H27.3333C28.8061 26 30 24.8061 30 23.3333V8.66667C30 7.19391 28.8061 6 27.3333 6H4.66667ZM12.6667 11.6667C12.6667 11.1144 13.1144 10.6667 13.6667 10.6667C14.219 10.6667 14.6667 11.1144 14.6667 11.6667V15C14.6667 15.5523 14.219 16 13.6667 16C13.1144 16 12.6667 15.5523 12.6667 15V11.6667ZM17.3333 11.6667C17.3333 11.1144 17.781 10.6667 18.3333 10.6667C18.8856 10.6667 19.3333 11.1144 19.3333 11.6667V15C19.3333 15.5523 18.8856 16 18.3333 16C17.781 16 17.3333 15.5523 17.3333 15V11.6667ZM11.184 18.0887C11.5033 17.638 12.1274 17.5314 12.5781 17.8506C13.6354 18.5995 14.795 19 16.0001 19C17.2052 19 18.3648 18.5995 19.4221 17.8506C19.8728 17.5314 20.4969 17.638 20.8161 18.0887C21.1353 18.5394 21.0288 19.1635 20.5781 19.4827C19.2255 20.4407 17.6687 21 16.0001 21C14.3315 21 12.7747 20.4407 11.4221 19.4827C10.9714 19.1635 10.8648 18.5394 11.184 18.0887Z" fill="white"/>
<path fill-rule="evenodd" clip-rule="evenodd" d="M0 8.66667C0 6.08934 2.08934 4 4.66667 4H27.3333C29.9107 4 32 6.08934 32 8.66667V23.3333C32 25.9107 29.9107 28 27.3333 28H4.66667C2.08934 28 0 25.9107 0 23.3333V8.66667ZM12.5781 17.8506C12.5944 17.8622 12.6113 17.8741 12.6277 17.8855C13.6718 18.6121 14.814 19 16.0001 19C17.2052 19 18.3648 18.5995 19.4221 17.8506C19.8728 17.5314 20.4969 17.638 20.8161 18.0887C21.1353 18.5394 21.0288 19.1635 20.5781 19.4827C20.5569 19.4977 20.5357 19.5126 20.5145 19.5273C19.1765 20.4582 17.6423 21 16.0001 21C14.3315 21 12.7747 20.4407 11.4221 19.4827C10.9714 19.1635 10.8648 18.5394 11.184 18.0887C11.5033 17.638 12.1274 17.5314 12.5781 17.8506C12.5782 17.8507 12.5779 17.8505 12.5781 17.8506ZM2 8.66667C2 7.19391 3.19391 6 4.66667 6H27.3333C28.8061 6 30 7.19391 30 8.66667V23.3333C30 24.8061 28.8061 26 27.3333 26H4.66667C3.19391 26 2 24.8061 2 23.3333V8.66667ZM13.6667 10.6667C13.1144 10.6667 12.6667 11.1144 12.6667 11.6667V15C12.6667 15.5523 13.1144 16 13.6667 16C14.219 16 14.6667 15.5523 14.6667 15V11.6667C14.6667 11.1144 14.219 10.6667 13.6667 10.6667ZM18.3333 10.6667C17.781 10.6667 17.3333 11.1144 17.3333 11.6667V15C17.3333 15.5523 17.781 16 18.3333 16C18.8856 16 19.3333 15.5523 19.3333 15V11.6667C19.3333 11.1144 18.8856 10.6667 18.3333 10.6667Z" fill="black"/>
</svg>
